<svg width="24" height="20" viewBox="0 0 24 20" fill="none" xmlns="http://www.w3.org/2000/svg">
<path d="M12.1058 19.2264C10.1238 19.2264 8.1417 19.2264 6.16083 19.2264C5.24188 19.2264 4.85508 18.7856 4.93556 17.8702C5.08451 16.1909 5.86893 14.8935 7.278 13.9866C8.09725 13.4592 9.0174 13.2382 9.98801 13.2346C11.4091 13.2298 12.8302 13.225 14.2512 13.2346C16.7919 13.2538 18.7691 14.9103 19.2376 17.4065C19.2833 17.6516 19.3013 17.9038 19.3049 18.1537C19.3157 18.8216 18.8761 19.2252 18.1397 19.2252C16.1276 19.2276 14.1155 19.2252 12.1046 19.2252L12.1058 19.2264ZM18.1325 18.0264C18.0928 17.7921 18.0724 17.5831 18.022 17.3801C17.5871 15.6215 16.1204 14.4442 14.3053 14.4226C12.8446 14.4058 11.3839 14.4058 9.92315 14.425C9.14113 14.4346 8.40357 14.6268 7.74889 15.0905C6.73743 15.8077 6.21609 16.7879 6.10197 18.0264H18.1325Z" fill="#45A874"/>
<path d="M12.1575 4.82465C14.1912 4.89432 15.7372 6.52681 15.6976 8.47044C15.6543 10.5558 13.9509 12.0454 12.0566 12.0057C9.95198 11.9625 8.50087 10.2267 8.5297 8.38395C8.56213 6.3202 10.2475 4.82344 12.1575 4.82585V4.82465ZM9.70932 8.41278C9.70932 9.72094 10.8157 10.8309 12.1166 10.8273C13.4116 10.8237 14.5119 9.72815 14.5167 8.438C14.5203 7.11903 13.4416 6.02109 12.1274 6.00788C10.8301 5.99586 9.71053 7.10942 9.70932 8.41278Z" fill="#45A874"/>
<path d="M8.49847 3.01436C8.49366 4.63365 7.13024 5.99827 5.50976 6.00427C3.88567 6.01028 2.49462 4.61202 2.51264 2.99394C2.53066 1.37466 3.91209 0.00403217 5.51576 0.0172459C7.13505 0.0304596 8.50327 1.40469 8.49847 3.01556V3.01436ZM5.53138 1.20168C4.55476 1.18006 3.70909 2.00772 3.69707 2.99875C3.68506 3.97056 4.4935 4.79702 5.47852 4.81864C6.45874 4.84026 7.29962 4.01741 7.31163 3.02157C7.32485 2.05216 6.514 1.2233 5.53138 1.20168Z" fill="#45A874"/>
<path d="M19.3133 6.00307C17.6976 5.99346 16.3258 4.61683 16.3294 3.00716C16.3318 1.39388 17.7048 0.0196489 19.3181 0.0148439C20.9434 0.0100389 22.3357 1.40949 22.3152 3.02638C22.2948 4.65407 20.9254 6.01268 19.3133 6.00307ZM21.1296 3.00235C21.1236 2.02453 20.3043 1.20528 19.3289 1.20168C18.3403 1.19807 17.5078 2.03174 17.5138 3.01677C17.5198 4.00539 18.3643 4.83666 19.3445 4.81744C20.326 4.79822 21.1356 3.97416 21.1296 3.00235Z" fill="#45A874"/>
<path d="M7.42455 7.24877C7.3753 7.63797 7.32845 8.00315 7.27679 8.40917C7.16748 8.40917 7.05096 8.40677 6.93444 8.40917C5.89536 8.42839 4.85267 8.39956 3.8184 8.48005C2.5655 8.57855 1.49878 9.6873 1.34983 10.9318C1.32821 11.1108 1.31019 11.2898 1.28256 11.4676C1.2261 11.8375 0.990658 12.0345 0.649503 12.0057C0.325166 11.9781 0.101731 11.751 0.113743 11.4015C0.137768 10.706 0.257894 10.0237 0.621873 9.41942C1.28616 8.31788 2.21113 7.55749 3.50607 7.31243C3.68266 7.2788 3.86284 7.25237 4.04063 7.25117C5.15899 7.24516 6.27735 7.24877 7.42335 7.24877H7.42455Z" fill="#45A874"/>
<path d="M16.9577 8.41037C16.9072 8.00435 16.8616 7.63076 16.8147 7.24877C16.8556 7.24036 16.894 7.22714 16.9312 7.22714C18.1013 7.24276 19.2725 7.22714 20.4401 7.286C21.9885 7.36529 23.591 8.75153 23.9441 10.2663C24.0234 10.6051 24.0715 10.9534 24.1075 11.3006C24.1507 11.7078 23.9489 11.9637 23.5874 12.0057C23.2354 12.0454 22.9783 11.8279 22.9387 11.4219C22.8762 10.7756 22.7405 10.157 22.3489 9.62364C21.7242 8.77315 20.8425 8.4356 19.825 8.41518C18.8761 8.39596 17.9247 8.41158 16.9577 8.41158V8.41037Z" fill="#45A874"/>
</svg>
