<svg width="24" height="22" viewBox="0 0 24 22" fill="none" xmlns="http://www.w3.org/2000/svg">
<path d="M14.26 7.21105C14.26 6.52988 14.248 5.90573 14.263 5.28158C14.281 4.58391 14.5421 4.01977 15.2067 3.7002C15.8234 3.40312 16.7176 3.40462 17.4738 4.1323C18.8526 5.45712 20.2539 6.75794 21.6463 8.06925C22.2104 8.60038 22.7821 9.12401 23.3417 9.65964C24.2254 10.5043 24.2164 11.4601 23.3327 12.2928C21.3687 14.1442 19.4062 15.9987 17.4438 17.8516C16.8871 18.3768 16.254 18.6303 15.4963 18.3633C14.7011 18.0842 14.2915 17.5245 14.263 16.6723C14.245 16.1352 14.2435 15.5966 14.263 15.0595C14.2735 14.7714 14.1655 14.6994 13.8939 14.7009C12.5061 14.7114 11.1182 14.7084 9.73039 14.7054C9.06423 14.7039 8.44458 14.5943 7.97047 14.0452C7.67489 13.7031 7.52936 13.3265 7.52936 12.8854C7.52636 11.6221 7.51285 10.3603 7.53086 9.097C7.54736 8.02574 8.34706 7.24556 9.42432 7.23655C10.8872 7.22455 12.35 7.23355 13.8129 7.23205C13.9464 7.23205 14.0814 7.22155 14.26 7.21255V7.21105ZM12.257 8.69791C11.3703 8.69791 10.4836 8.69491 9.59686 8.69791C9.13475 8.69941 9.00122 8.83594 8.99972 9.30556C8.99672 10.4053 8.99672 11.5036 8.99972 12.6034C8.99972 13.1 9.12425 13.223 9.62087 13.2245C10.7581 13.2275 11.8939 13.2245 13.0312 13.2245C13.6433 13.2245 14.257 13.2095 14.8661 13.2425C15.5173 13.2785 15.7243 13.5201 15.7273 14.1667C15.7303 14.9034 15.7123 15.6416 15.7394 16.3768C15.7469 16.5613 15.8624 16.7714 15.9959 16.9019C16.0409 16.9454 16.326 16.8119 16.446 16.7008C18.3875 14.9004 20.32 13.0925 22.2524 11.283C22.5855 10.971 22.5825 10.947 22.2569 10.6424C20.9891 9.45709 19.7198 8.2733 18.452 7.08952C17.7678 6.45036 17.0882 5.80671 16.392 5.17805C16.2885 5.08503 16.0694 4.98751 15.9839 5.03402C15.8609 5.10304 15.7964 5.29658 15.7364 5.44962C15.7018 5.53664 15.7273 5.64767 15.7273 5.74669C15.7273 6.43386 15.7318 7.12103 15.7273 7.80819C15.7213 8.45485 15.4813 8.69341 14.8436 8.69491C13.9824 8.69641 13.1197 8.69491 12.2585 8.69491L12.257 8.69791Z" fill="#45A874"/>
<path d="M0.00953546 10.9349C0.00953546 8.73542 0.000533091 6.53438 0.0140364 4.33485C0.0215382 3.12555 0.431138 2.0723 1.39887 1.30861C1.99602 0.837499 2.69069 0.546428 3.46788 0.535926C5.01625 0.514921 6.56613 0.489415 8.1145 0.504418C8.79867 0.51192 9.10174 0.935023 8.9232 1.49166C8.81067 1.84124 8.5391 1.93427 8.22253 1.93727C7.09725 1.94927 5.97348 1.94627 4.84821 1.95977C4.37409 1.96427 3.89548 1.95677 3.42887 2.01829C2.30209 2.16982 1.5324 3.05204 1.48739 4.19231C1.48439 4.27933 1.48289 4.36786 1.48289 4.45488C1.48289 8.79243 1.48289 13.13 1.48289 17.4675C1.48289 18.4233 1.80097 19.226 2.68919 19.6686C3.05527 19.8516 3.49638 19.9521 3.90748 19.9626C5.29382 19.9986 6.68315 19.9611 8.06949 19.9911C8.32755 19.9972 8.65913 20.1172 8.82117 20.3032C9.20527 20.7413 8.87368 21.403 8.27804 21.451C8.01698 21.472 7.75291 21.4585 7.49035 21.4585C6.27806 21.4585 5.06426 21.4915 3.85347 21.451C2.3231 21.4 1.06879 20.7938 0.414633 19.3445C0.161072 18.7819 0.0395428 18.1187 0.0260396 17.4975C-0.0189714 15.3115 0.00803478 13.1225 0.00803478 10.9349H0.00953546Z" fill="#45A874"/>
</svg>
