<svg width="32" height="32" viewBox="0 0 32 32" fill="none" xmlns="http://www.w3.org/2000/svg">
<path d="M24.0301 22.7894C19.898 26.9215 13.1985 26.9215 9.06645 22.7894C4.93436 18.6573 4.93436 11.9579 9.06645 7.82577C13.1985 3.69368 19.898 3.69368 24.0301 7.82577C28.1622 11.9579 28.1622 18.6573 24.0301 22.7894ZM11.2171 9.97642C8.27279 12.9207 8.27279 17.6944 11.2171 20.6387C14.1614 23.5831 18.9351 23.5831 21.8794 20.6387C24.8237 17.6944 24.8237 12.9207 21.8794 9.97642C18.9351 7.0321 14.1614 7.0321 11.2171 9.97642Z" fill="url(#paint0_linear_2833_1896)"/>
<path d="M1.17221 11.7759C0.396352 11.0001 0.396353 9.74216 1.17221 8.9663L9.55661 0.581897C10.3325 -0.193966 11.5904 -0.193966 12.3663 0.581897C13.1421 1.35776 13.1421 2.61568 12.3663 3.39154L3.98186 11.7759C3.206 12.5518 1.94808 12.5518 1.17221 11.7759Z" fill="url(#paint1_linear_2833_1896)"/>
<path d="M20.2243 30.828C19.4484 30.0521 19.4484 28.7942 20.2243 28.0184L28.6087 19.634C29.3845 18.8581 30.6425 18.8581 31.4183 19.634C32.1942 20.4098 32.1942 21.6677 31.4183 22.4436L23.0339 30.828C22.2581 31.6039 21.0001 31.6039 20.2243 30.828Z" fill="url(#paint2_linear_2833_1896)"/>
<path d="M0.67371 31.3263C-0.224571 30.428 -0.22457 28.9716 0.673711 28.0733L5.22786 23.5192C6.12614 22.6209 7.58254 22.6209 8.48082 23.5192C9.3791 24.4175 9.3791 25.8739 8.48082 26.7721L3.92667 31.3263C3.02839 32.2246 1.57199 32.2246 0.67371 31.3263Z" fill="url(#paint3_linear_2833_1896)"/>
<defs>
<linearGradient id="paint0_linear_2833_1896" x1="-17.4547" y1="1.84615" x2="30.5583" y2="32.5747" gradientUnits="userSpaceOnUse">
<stop stop-color="#6AB990"/>
<stop offset="0.989799" stop-color="#6AB990" stop-opacity="0.2"/>
</linearGradient>
<linearGradient id="paint1_linear_2833_1896" x1="-17.4547" y1="1.84615" x2="30.5583" y2="32.5747" gradientUnits="userSpaceOnUse">
<stop stop-color="#6AB990"/>
<stop offset="0.989799" stop-color="#6AB990" stop-opacity="0.2"/>
</linearGradient>
<linearGradient id="paint2_linear_2833_1896" x1="-17.4547" y1="1.84615" x2="30.5583" y2="32.5747" gradientUnits="userSpaceOnUse">
<stop stop-color="#6AB990"/>
<stop offset="0.989799" stop-color="#6AB990" stop-opacity="0.2"/>
</linearGradient>
<linearGradient id="paint3_linear_2833_1896" x1="-17.4547" y1="1.84615" x2="30.5583" y2="32.5747" gradientUnits="userSpaceOnUse">
<stop stop-color="#6AB990"/>
<stop offset="0.989799" stop-color="#6AB990" stop-opacity="0.2"/>
</linearGradient>
</defs>
</svg>
