<svg width="14" height="14" viewBox="0 0 14 14" fill="none" xmlns="http://www.w3.org/2000/svg">
<path d="M7 0.875C8.68984 0.875 10.0625 2.24766 10.0625 3.9375C10.0625 5.62734 8.68984 7 7 7C5.31016 7 3.9375 5.62734 3.9375 3.9375C3.9375 2.24766 5.31016 0.875 7 0.875ZM10.5 9.625C11.9465 9.625 13.125 10.8035 13.125 12.25V13.125H0.875V12.25C0.875 10.8035 2.05352 9.625 3.5 9.625C5.82422 9.625 5.34023 10.0625 7 10.0625C8.66523 10.0625 8.17305 9.625 10.5 9.625ZM7 0C4.82617 0 3.0625 1.76367 3.0625 3.9375C3.0625 6.11133 4.82617 7.875 7 7.875C9.17383 7.875 10.9375 6.11133 10.9375 3.9375C10.9375 1.76367 9.17383 0 7 0ZM10.5 8.75C7.97344 8.75 8.55859 9.1875 7 9.1875C5.44688 9.1875 6.02383 8.75 3.5 8.75C1.5668 8.75 0 10.3168 0 12.25V13.125C0 13.609 0.391016 14 0.875 14H13.125C13.609 14 14 13.609 14 13.125V12.25C14 10.3168 12.4332 8.75 10.5 8.75Z" fill="#45A874"/>
</svg>
